<svg viewBox="0 0 100.000 100.000" xmlns="http://www.w3.org/2000/svg" xmlns:cc="http://creativecommons.org/ns#" xmlns:dc="http://purl.org/dc/elements/1.1/" xmlns:rdf="http://www.w3.org/1999/02/22-rdf-syntax-ns#" xmlns:svg="http://www.w3.org/2000/svg" xmlns:xlink="http://www.w3.org/1999/xlink"><metadata><rdf:RDF><cc:Work><dc:format>image/svg+xml</dc:format><dc:type rdf:resource="http://purl.org/dc/dcmitype/StillImage" /><dc:title /><dc:description>some description</dc:description><dc:source>source</dc:source><dc:language>en</dc:language><dc:identifier>company/project/example123</dc:identifier><dc:date>2020</dc:date><dc:creator><cc:Agent><dc:title /></cc:Agent></dc:creator><cc:license rdf:resource="https://creativecommons.org/share-your-work/public-domain/cc0/" /></cc:Work></rdf:RDF></metadata><path d="M 17.933 77.933 L 20.000 80.000 L 22.067 77.933 L 22.067 82.067 L 17.933 82.067" /><path d="M 37.267 77.267 L 40.000 80.000 L 42.733 77.267 L 42.733 82.733 L 37.267 82.733" /><path d="M 56.600 76.600 L 60.000 80.000 L 63.400 76.600 L 63.400 83.400 L 56.600 83.400" /><path d="M 75.933 75.933 L 80.000 80.000 L 84.067 75.933 L 84.067 84.067 L 75.933 84.067" /><path d="M 19.266 42.730 L 20.000 40.000 L 17.270 39.266 L 20.734 37.270 L 22.730 40.734" /><path d="M 41.194 42.562 L 40.000 40.000 L 37.438 41.194 L 38.806 37.438 L 42.562 38.806" /><path d="M 62.562 41.194 L 60.000 40.000 L 58.806 42.562 L 57.438 38.806 L 61.194 37.438" /><path d="M 82.732 39.268 L 80.000 40.000 L 80.732 42.732 L 77.268 40.732 L 79.268 37.268" /></svg>