<svg viewBox="0 0 100.000 100.000" xmlns="http://www.w3.org/2000/svg" xmlns:cc="http://creativecommons.org/ns#" xmlns:dc="http://purl.org/dc/elements/1.1/" xmlns:rdf="http://www.w3.org/1999/02/22-rdf-syntax-ns#" xmlns:svg="http://www.w3.org/2000/svg" xmlns:xlink="http://www.w3.org/1999/xlink"><metadata><rdf:RDF><cc:Work><dc:format>image/svg+xml</dc:format><dc:type rdf:resource="http://purl.org/dc/dcmitype/StillImage" /><dc:title /><dc:description /><dc:source>source</dc:source><dc:language>en</dc:language><dc:identifier /><dc:date>2020</dc:date><dc:creator><cc:Agent><dc:title /></cc:Agent></dc:creator><cc:license rdf:resource="https://creativecommons.org/licenses/by-sa/4.0/legalcode" /></cc:Work></rdf:RDF></metadata><path d="M 9.667 89.667 L 10.000 90.000 L 10.333 89.667 L 10.333 90.333 L 9.667 90.333" /><path d="M 19.667 89.667 L 20.000 90.000 L 20.333 89.667 L 20.333 90.333 L 19.667 90.333" /><path d="M 29.667 89.667 L 30.000 90.000 L 30.333 89.667 L 30.333 90.333 L 29.667 90.333" /><path d="M 39.667 89.667 L 40.000 90.000 L 40.333 89.667 L 40.333 90.333 L 39.667 90.333" /><path d="M 49.667 89.667 L 50.000 90.000 L 50.333 89.667 L 50.333 90.333 L 49.667 90.333" /><path d="M 59.667 89.667 L 60.000 90.000 L 60.333 89.667 L 60.333 90.333 L 59.667 90.333" /><path d="M 69.667 89.667 L 70.000 90.000 L 70.333 89.667 L 70.333 90.333 L 69.667 90.333" /><path d="M 79.667 89.667 L 80.000 90.000 L 80.333 89.667 L 80.333 90.333 L 79.667 90.333" /><path d="M 9.633 69.633 L 10.000 70.000 L 10.367 69.633 L 10.367 70.367 L 9.633 70.367" /><path d="M 19.300 69.300 L 20.000 70.000 L 20.700 69.300 L 20.700 70.700 L 19.300 70.700" /><path d="M 28.967 68.967 L 30.000 70.000 L 31.033 68.967 L 31.033 71.033 L 28.967 71.033" /><path d="M 38.633 68.633 L 40.000 70.000 L 41.367 68.633 L 41.367 71.367 L 38.633 71.367" /><path d="M 48.300 68.300 L 50.000 70.000 L 51.700 68.300 L 51.700 71.700 L 48.300 71.700" /><path d="M 57.967 67.967 L 60.000 70.000 L 62.033 67.967 L 62.033 72.033 L 57.967 72.033" /><path d="M 67.633 67.633 L 70.000 70.000 L 72.367 67.633 L 72.367 72.367 L 67.633 72.367" /><path d="M 77.300 67.300 L 80.000 70.000 L 82.700 67.300 L 82.700 72.700 L 77.300 72.700" /><path d="M 8.592 49.876 L 10.000 50.000 L 10.124 48.592 L 11.408 50.124 L 9.876 51.408" /><path d="M 18.843 50.811 L 20.000 50.000 L 19.189 48.843 L 21.157 49.189 L 20.811 51.157" /><path d="M 29.633 51.365 L 30.000 50.000 L 28.635 49.633 L 30.367 48.635 L 31.365 50.367" /><path d="M 40.597 51.281 L 40.000 50.000 L 38.719 50.597 L 39.403 48.719 L 41.281 49.403" /><path d="M 51.281 50.597 L 50.000 50.000 L 49.403 51.281 L 48.719 49.403 L 50.597 48.719" /><path d="M 61.366 49.634 L 60.000 50.000 L 60.366 51.366 L 58.634 50.366 L 59.634 48.634" /><path d="M 70.811 48.843 L 70.000 50.000 L 71.157 50.811 L 69.189 51.157 L 68.843 49.189" /><path d="M 79.876 48.592 L 80.000 50.000 L 81.408 49.876 L 80.124 51.408 L 78.592 50.124" /></svg>