<svg viewBox="0 0 100.000 100.000" xmlns="http://www.w3.org/2000/svg" xmlns:xlink="http://www.w3.org/1999/xlink"><path d="M -0.333 89.667 L 0.000 90.000 L 0.333 89.667 L 0.333 90.333 L -0.333 90.333" /><path d="M 9.667 89.667 L 10.000 90.000 L 10.333 89.667 L 10.333 90.333 L 9.667 90.333" /><path d="M 19.667 89.667 L 20.000 90.000 L 20.333 89.667 L 20.333 90.333 L 19.667 90.333" /><path d="M 29.667 89.667 L 30.000 90.000 L 30.333 89.667 L 30.333 90.333 L 29.667 90.333" /><path d="M 39.667 89.667 L 40.000 90.000 L 40.333 89.667 L 40.333 90.333 L 39.667 90.333" /><path d="M 49.667 89.667 L 50.000 90.000 L 50.333 89.667 L 50.333 90.333 L 49.667 90.333" /><path d="M 59.667 89.667 L 60.000 90.000 L 60.333 89.667 L 60.333 90.333 L 59.667 90.333" /><path d="M 69.667 89.667 L 70.000 90.000 L 70.333 89.667 L 70.333 90.333 L 69.667 90.333" /><path d="M 79.667 89.667 L 80.000 90.000 L 80.333 89.667 L 80.333 90.333 L 79.667 90.333" /></svg>